{
    "asset" : {
        "generator" : "Khronos glTF Blender I/O v1.5.17",
        "version" : "2.0"
    },
    "scene" : 0,
    "scenes" : [
        {
            "name" : "Scene",
            "nodes" : [
                0,
                1,
                2,
                3,
                4,
                5,
                6,
                7,
                8,
                9,
                10,
                11,
                12,
                13
            ]
        }
    ],
    "nodes" : [
        {
            "name" : "Camera",
            "rotation" : [
                0.483536034822464,
                0.33687159419059753,
                -0.20870360732078552,
                0.7804827094078064
            ],
            "translation" : [
                7.358891487121582,
                4.958309173583984,
                6.925790786743164
            ]
        },
        {
            "mesh" : 0,
            "name" : "Floor1",
            "rotation" : [
                -1,
                0,
                0,
                -4.371138828673793e-08
            ],
            "translation" : [
                -0.5522270202636719,
                -0.8391379117965698,
                -9.981603622436523
            ]
        },
        {
            "mesh" : 1,
            "name" : "Floor1.001",
            "rotation" : [
                -0.7071068286895752,
                0,
                0.7071068286895752,
                -1.1520232590100932e-07
            ],
            "scale" : [
                1,
                1,
                5
            ],
            "translation" : [
                -0.5522270202636719,
                -0.8391379117965698,
                -32.7711296081543
            ]
        },
        {
            "name" : "Light.001",
            "rotation" : [
                0.16907575726509094,
                0.7558804154396057,
                -0.27217137813568115,
                0.5709474086761475
            ],
            "translation" : [
                4.076245307922363,
                5.903861999511719,
                -1.0054539442062378
            ]
        },
        {
            "name" : "Camera.001",
            "rotation" : [
                0.48353609442710876,
                0.3368716537952423,
                -0.20870374143123627,
                0.7804827690124512
            ],
            "translation" : [
                7.358891487121582,
                4.958309173583984,
                6.925790786743164
            ]
        },
        {
            "mesh" : 2,
            "name" : "Wall",
            "scale" : [
                1,
                3.2340474128723145,
                4.471543312072754
            ],
            "translation" : [
                -79.11070251464844,
                12.279069900512695,
                -81.55392456054688
            ]
        },
        {
            "mesh" : 3,
            "name" : "Wall.001",
            "rotation" : [
                0,
                0.7071068286895752,
                0,
                0.7071068286895752
            ],
            "scale" : [
                1,
                3.2340474128723145,
                5.186377048492432
            ],
            "translation" : [
                -1.5240118503570557,
                10.155500411987305,
                -150.12632751464844
            ]
        },
        {
            "mesh" : 4,
            "name" : "Wall.002",
            "scale" : [
                1,
                3.2340474128723145,
                4.471543312072754
            ],
            "translation" : [
                76.62971496582031,
                12.279069900512695,
                -81.55392456054688
            ]
        },
        {
            "mesh" : 5,
            "name" : "Wall.003",
            "rotation" : [
                0,
                0.7071068286895752,
                0,
                0.7071068286895752
            ],
            "scale" : [
                1,
                3.2340474128723145,
                2.380570888519287
            ],
            "translation" : [
                -43.496768951416016,
                12.279069900512695,
                -24.115524291992188
            ]
        },
        {
            "mesh" : 6,
            "name" : "Wall.004",
            "rotation" : [
                0,
                0.7071068286895752,
                0,
                0.7071068286895752
            ],
            "scale" : [
                1,
                3.2340474128723145,
                2.380570888519287
            ],
            "translation" : [
                42.2248649597168,
                12.279069900512695,
                -24.115524291992188
            ]
        },
        {
            "mesh" : 7,
            "name" : "Wall.005",
            "scale" : [
                1,
                3.2340474128723145,
                0.9364264011383057
            ],
            "translation" : [
                7.9746904373168945,
                12.279069900512695,
                -8.722673416137695
            ]
        },
        {
            "mesh" : 8,
            "name" : "Wall.006",
            "scale" : [
                1,
                3.2340474128723145,
                0.9364264011383057
            ],
            "translation" : [
                -9.388781547546387,
                12.279069900512695,
                -8.722673416137695
            ]
        },
        {
            "mesh" : 9,
            "name" : "Wall.007",
            "rotation" : [
                0,
                0.7071068286895752,
                0,
                0.7071068286895752
            ],
            "scale" : [
                1,
                3.2340474128723145,
                0.6784340143203735
            ],
            "translation" : [
                -0.7196152210235596,
                12.279069900512695,
                6.624320030212402
            ]
        },
        {
            "mesh" : 10,
            "name" : "Grid",
            "scale" : [
                79.05956268310547,
                59.702659606933594,
                65.65048217773438
            ],
            "translation" : [
                -1.3276467323303223,
                58.30205535888672,
                -87.51165771484375
            ]
        }
    ],
    "meshes" : [
        {
            "name" : "Cube.001",
            "primitives" : [
                {
                    "attributes" : {
                        "POSITION" : 0,
                        "NORMAL" : 1,
                        "TEXCOORD_0" : 2
                    },
                    "indices" : 3
                }
            ]
        },
        {
            "name" : "Cube.002",
            "primitives" : [
                {
                    "attributes" : {
                        "POSITION" : 4,
                        "NORMAL" : 5,
                        "TEXCOORD_0" : 6
                    },
                    "indices" : 7
                }
            ]
        },
        {
            "name" : "Cube.003",
            "primitives" : [
                {
                    "attributes" : {
                        "POSITION" : 8,
                        "NORMAL" : 9,
                        "TEXCOORD_0" : 10
                    },
                    "indices" : 3
                }
            ]
        },
        {
            "name" : "Cube.004",
            "primitives" : [
                {
                    "attributes" : {
                        "POSITION" : 11,
                        "NORMAL" : 12,
                        "TEXCOORD_0" : 13
                    },
                    "indices" : 3
                }
            ]
        },
        {
            "name" : "Cube.005",
            "primitives" : [
                {
                    "attributes" : {
                        "POSITION" : 14,
                        "NORMAL" : 15,
                        "TEXCOORD_0" : 16
                    },
                    "indices" : 3
                }
            ]
        },
        {
            "name" : "Cube.006",
            "primitives" : [
                {
                    "attributes" : {
                        "POSITION" : 17,
                        "NORMAL" : 18,
                        "TEXCOORD_0" : 19
                    },
                    "indices" : 3
                }
            ]
        },
        {
            "name" : "Cube.007",
            "primitives" : [
                {
                    "attributes" : {
                        "POSITION" : 20,
                        "NORMAL" : 21,
                        "TEXCOORD_0" : 22
                    },
                    "indices" : 3
                }
            ]
        },
        {
            "name" : "Cube.008",
            "primitives" : [
                {
                    "attributes" : {
                        "POSITION" : 23,
                        "NORMAL" : 24,
                        "TEXCOORD_0" : 25
                    },
                    "indices" : 3
                }
            ]
        },
        {
            "name" : "Cube.009",
            "primitives" : [
                {
                    "attributes" : {
                        "POSITION" : 26,
                        "NORMAL" : 27,
                        "TEXCOORD_0" : 28
                    },
                    "indices" : 3
                }
            ]
        },
        {
            "name" : "Cube.010",
            "primitives" : [
                {
                    "attributes" : {
                        "POSITION" : 29,
                        "NORMAL" : 30,
                        "TEXCOORD_0" : 31
                    },
                    "indices" : 3
                }
            ]
        },
        {
            "name" : "Grid",
            "primitives" : [
                {
                    "attributes" : {
                        "POSITION" : 32,
                        "NORMAL" : 33,
                        "TEXCOORD_0" : 34
                    },
                    "indices" : 35
                }
            ]
        }
    ],
    "accessors" : [
        {
            "bufferView" : 0,
            "componentType" : 5126,
            "count" : 24,
            "max" : [
                7.252817153930664,
                0.8250102996826172,
                15.518367767333984
            ],
            "min" : [
                -7.252817153930664,
                -0.8250102996826172,
                -15.518367767333984
            ],
            "type" : "VEC3"
        },
        {
            "bufferView" : 1,
            "componentType" : 5126,
            "count" : 24,
            "type" : "VEC3"
        },
        {
            "bufferView" : 2,
            "componentType" : 5126,
            "count" : 24,
            "type" : "VEC2"
        },
        {
            "bufferView" : 3,
            "componentType" : 5123,
            "count" : 36,
            "type" : "SCALAR"
        },
        {
            "bufferView" : 4,
            "componentType" : 5126,
            "count" : 104,
            "max" : [
                115.49180603027344,
                34.996788024902344,
                15.518367767333984
            ],
            "min" : [
                -7.252817153930664,
                -0.8250102996826172,
                -15.518367767333984
            ],
            "type" : "VEC3"
        },
        {
            "bufferView" : 5,
            "componentType" : 5126,
            "count" : 104,
            "type" : "VEC3"
        },
        {
            "bufferView" : 6,
            "componentType" : 5126,
            "count" : 104,
            "type" : "VEC2"
        },
        {
            "bufferView" : 7,
            "componentType" : 5123,
            "count" : 204,
            "type" : "SCALAR"
        },
        {
            "bufferView" : 8,
            "componentType" : 5126,
            "count" : 24,
            "max" : [
                1.3984909057617188,
                14.89388656616211,
                14.969566345214844
            ],
            "min" : [
                -1.3984909057617188,
                -14.89388656616211,
                -14.969566345214844
            ],
            "type" : "VEC3"
        },
        {
            "bufferView" : 9,
            "componentType" : 5126,
            "count" : 24,
            "type" : "VEC3"
        },
        {
            "bufferView" : 10,
            "componentType" : 5126,
            "count" : 24,
            "type" : "VEC2"
        },
        {
            "bufferView" : 11,
            "componentType" : 5126,
            "count" : 24,
            "max" : [
                1.3984909057617188,
                14.89388656616211,
                14.969566345214844
            ],
            "min" : [
                -1.3984909057617188,
                -14.89388656616211,
                -14.969566345214844
            ],
            "type" : "VEC3"
        },
        {
            "bufferView" : 12,
            "componentType" : 5126,
            "count" : 24,
            "type" : "VEC3"
        },
        {
            "bufferView" : 13,
            "componentType" : 5126,
            "count" : 24,
            "type" : "VEC2"
        },
        {
            "bufferView" : 14,
            "componentType" : 5126,
            "count" : 24,
            "max" : [
                1.3984909057617188,
                14.89388656616211,
                14.969566345214844
            ],
            "min" : [
                -1.3984909057617188,
                -14.89388656616211,
                -14.969566345214844
            ],
            "type" : "VEC3"
        },
        {
            "bufferView" : 15,
            "componentType" : 5126,
            "count" : 24,
            "type" : "VEC3"
        },
        {
            "bufferView" : 16,
            "componentType" : 5126,
            "count" : 24,
            "type" : "VEC2"
        },
        {
            "bufferView" : 17,
            "componentType" : 5126,
            "count" : 24,
            "max" : [
                1.3984909057617188,
                14.89388656616211,
                14.969566345214844
            ],
            "min" : [
                -1.3984909057617188,
                -14.89388656616211,
                -14.969566345214844
            ],
            "type" : "VEC3"
        },
        {
            "bufferView" : 18,
            "componentType" : 5126,
            "count" : 24,
            "type" : "VEC3"
        },
        {
            "bufferView" : 19,
            "componentType" : 5126,
            "count" : 24,
            "type" : "VEC2"
        },
        {
            "bufferView" : 20,
            "componentType" : 5126,
            "count" : 24,
            "max" : [
                1.3984909057617188,
                14.89388656616211,
                14.969566345214844
            ],
            "min" : [
                -1.3984909057617188,
                -14.89388656616211,
                -14.969566345214844
            ],
            "type" : "VEC3"
        },
        {
            "bufferView" : 21,
            "componentType" : 5126,
            "count" : 24,
            "type" : "VEC3"
        },
        {
            "bufferView" : 22,
            "componentType" : 5126,
            "count" : 24,
            "type" : "VEC2"
        },
        {
            "bufferView" : 23,
            "componentType" : 5126,
            "count" : 24,
            "max" : [
                1.3984909057617188,
                14.89388656616211,
                14.969566345214844
            ],
            "min" : [
                -1.3984909057617188,
                -14.89388656616211,
                -14.969566345214844
            ],
            "type" : "VEC3"
        },
        {
            "bufferView" : 24,
            "componentType" : 5126,
            "count" : 24,
            "type" : "VEC3"
        },
        {
            "bufferView" : 25,
            "componentType" : 5126,
            "count" : 24,
            "type" : "VEC2"
        },
        {
            "bufferView" : 26,
            "componentType" : 5126,
            "count" : 24,
            "max" : [
                1.3984909057617188,
                14.89388656616211,
                14.969566345214844
            ],
            "min" : [
                -1.3984909057617188,
                -14.89388656616211,
                -14.969566345214844
            ],
            "type" : "VEC3"
        },
        {
            "bufferView" : 27,
            "componentType" : 5126,
            "count" : 24,
            "type" : "VEC3"
        },
        {
            "bufferView" : 28,
            "componentType" : 5126,
            "count" : 24,
            "type" : "VEC2"
        },
        {
            "bufferView" : 29,
            "componentType" : 5126,
            "count" : 24,
            "max" : [
                1.3984909057617188,
                14.89388656616211,
                14.969566345214844
            ],
            "min" : [
                -1.3984909057617188,
                -14.89388656616211,
                -14.969566345214844
            ],
            "type" : "VEC3"
        },
        {
            "bufferView" : 30,
            "componentType" : 5126,
            "count" : 24,
            "type" : "VEC3"
        },
        {
            "bufferView" : 31,
            "componentType" : 5126,
            "count" : 24,
            "type" : "VEC2"
        },
        {
            "bufferView" : 32,
            "componentType" : 5126,
            "count" : 172,
            "max" : [
                1,
                0,
                1.4503496885299683
            ],
            "min" : [
                -1,
                -0.18567053973674774,
                -1
            ],
            "type" : "VEC3"
        },
        {
            "bufferView" : 33,
            "componentType" : 5126,
            "count" : 172,
            "type" : "VEC3"
        },
        {
            "bufferView" : 34,
            "componentType" : 5126,
            "count" : 172,
            "type" : "VEC2"
        },
        {
            "bufferView" : 35,
            "componentType" : 5123,
            "count" : 492,
            "type" : "SCALAR"
        }
    ],
    "bufferViews" : [
        {
            "buffer" : 0,
            "byteLength" : 288,
            "byteOffset" : 0
        },
        {
            "buffer" : 0,
            "byteLength" : 288,
            "byteOffset" : 288
        },
        {
            "buffer" : 0,
            "byteLength" : 192,
            "byteOffset" : 576
        },
        {
            "buffer" : 0,
            "byteLength" : 72,
            "byteOffset" : 768
        },
        {
            "buffer" : 0,
            "byteLength" : 1248,
            "byteOffset" : 840
        },
        {
            "buffer" : 0,
            "byteLength" : 1248,
            "byteOffset" : 2088
        },
        {
            "buffer" : 0,
            "byteLength" : 832,
            "byteOffset" : 3336
        },
        {
            "buffer" : 0,
            "byteLength" : 408,
            "byteOffset" : 4168
        },
        {
            "buffer" : 0,
            "byteLength" : 288,
            "byteOffset" : 4576
        },
        {
            "buffer" : 0,
            "byteLength" : 288,
            "byteOffset" : 4864
        },
        {
            "buffer" : 0,
            "byteLength" : 192,
            "byteOffset" : 5152
        },
        {
            "buffer" : 0,
            "byteLength" : 288,
            "byteOffset" : 5344
        },
        {
            "buffer" : 0,
            "byteLength" : 288,
            "byteOffset" : 5632
        },
        {
            "buffer" : 0,
            "byteLength" : 192,
            "byteOffset" : 5920
        },
        {
            "buffer" : 0,
            "byteLength" : 288,
            "byteOffset" : 6112
        },
        {
            "buffer" : 0,
            "byteLength" : 288,
            "byteOffset" : 6400
        },
        {
            "buffer" : 0,
            "byteLength" : 192,
            "byteOffset" : 6688
        },
        {
            "buffer" : 0,
            "byteLength" : 288,
            "byteOffset" : 6880
        },
        {
            "buffer" : 0,
            "byteLength" : 288,
            "byteOffset" : 7168
        },
        {
            "buffer" : 0,
            "byteLength" : 192,
            "byteOffset" : 7456
        },
        {
            "buffer" : 0,
            "byteLength" : 288,
            "byteOffset" : 7648
        },
        {
            "buffer" : 0,
            "byteLength" : 288,
            "byteOffset" : 7936
        },
        {
            "buffer" : 0,
            "byteLength" : 192,
            "byteOffset" : 8224
        },
        {
            "buffer" : 0,
            "byteLength" : 288,
            "byteOffset" : 8416
        },
        {
            "buffer" : 0,
            "byteLength" : 288,
            "byteOffset" : 8704
        },
        {
            "buffer" : 0,
            "byteLength" : 192,
            "byteOffset" : 8992
        },
        {
            "buffer" : 0,
            "byteLength" : 288,
            "byteOffset" : 9184
        },
        {
            "buffer" : 0,
            "byteLength" : 288,
            "byteOffset" : 9472
        },
        {
            "buffer" : 0,
            "byteLength" : 192,
            "byteOffset" : 9760
        },
        {
            "buffer" : 0,
            "byteLength" : 288,
            "byteOffset" : 9952
        },
        {
            "buffer" : 0,
            "byteLength" : 288,
            "byteOffset" : 10240
        },
        {
            "buffer" : 0,
            "byteLength" : 192,
            "byteOffset" : 10528
        },
        {
            "buffer" : 0,
            "byteLength" : 2064,
            "byteOffset" : 10720
        },
        {
            "buffer" : 0,
            "byteLength" : 2064,
            "byteOffset" : 12784
        },
        {
            "buffer" : 0,
            "byteLength" : 1376,
            "byteOffset" : 14848
        },
        {
            "buffer" : 0,
            "byteLength" : 984,
            "byteOffset" : 16224
        }
    ],
    "buffers" : [
        {
            "byteLength" : 17208,
            "uri" : "data:application/octet-stream;base64,"
        }
    ]
}
