{
  "accessors": [
    {
      "bufferView": 2,
      "componentType": 5126,
      "count": 10157,
      "max": [
        150.18997192382812,
        28.018133163452148,
        3.1616890430450439
      ],
      "min": [
        -30.700407028198242,
        -28.315397262573242,
        -6.6699280738830566
      ],
      "type": "VEC3"
    },
    {
      "bufferView": 2,
      "byteOffset": 121884,
      "componentType": 5126,
      "count": 10157,
      "max": [
        1,
        1,
        1
      ],
      "min": [
        -1,
        -1,
        -1
      ],
      "type": "VEC3"
    },
    {
      "bufferView": 3,
      "componentType": 5126,
      "count": 10157,
      "max": [
        1,
        1,
        1,
        1
      ],
      "min": [
        -1,
        -1,
        -1,
        -1
      ],
      "type": "VEC4"
    },
    {
      "bufferView": 1,
      "componentType": 5126,
      "count": 10157,
      "max": [
        0.99821257591247559,
        0.99152845144271851
      ],
      "min": [
        0.0057409405708312988,
        0.0017262460896745324
      ],
      "type": "VEC2"
    },
    {
      "bufferView": 0,
      "componentType": 5125,
      "count": 41451,
      "max": [
        10156
      ],
      "min": [
        0
      ],
      "type": "SCALAR"
    },
    {
      "bufferView": 4,
      "componentType": 5126,
      "count": 1,
      "max": [
        0
      ],
      "min": [
        0
      ],
      "type": "SCALAR"
    },
    {
      "bufferView": 5,
      "componentType": 5126,
      "count": 1,
      "max": [
        59.684806823730469,
        0,
        0.64501476287841797
      ],
      "min": [
        59.684806823730469,
        0,
        0.64501476287841797
      ],
      "type": "VEC3"
    },
    {
      "bufferView": 4,
      "byteOffset": 4,
      "componentType": 5126,
      "count": 1,
      "max": [
        0
      ],
      "min": [
        0
      ],
      "type": "SCALAR"
    },
    {
      "bufferView": 5,
      "byteOffset": 12,
      "componentType": 5126,
      "count": 1,
      "max": [
        1,
        1,
        1
      ],
      "min": [
        1,
        1,
        1
      ],
      "type": "VEC3"
    },
    {
      "bufferView": 4,
      "byteOffset": 8,
      "componentType": 5126,
      "count": 1,
      "max": [
        0
      ],
      "min": [
        0
      ],
      "type": "SCALAR"
    },
    {
      "bufferView": 6,
      "componentType": 5126,
      "count": 1,
      "max": [
        -0.70710676908493042,
        -0,
        0,
        0.70710676908493042
      ],
      "min": [
        -0.70710676908493042,
        -0,
        0,
        0.70710676908493042
      ],
      "type": "VEC4"
    },
    {
      "bufferView": 4,
      "byteOffset": 12,
      "componentType": 5126,
      "count": 1,
      "max": [
        0
      ],
      "min": [
        0
      ],
      "type": "SCALAR"
    },
    {
      "bufferView": 5,
      "byteOffset": 24,
      "componentType": 5126,
      "count": 1,
      "max": [
        0,
        0,
        0
      ],
      "min": [
        0,
        0,
        0
      ],
      "type": "VEC3"
    },
    {
      "bufferView": 4,
      "byteOffset": 16,
      "componentType": 5126,
      "count": 1,
      "max": [
        0
      ],
      "min": [
        0
      ],
      "type": "SCALAR"
    },
    {
      "bufferView": 5,
      "byteOffset": 36,
      "componentType": 5126,
      "count": 1,
      "max": [
        1,
        1,
        1
      ],
      "min": [
        1,
        1,
        1
      ],
      "type": "VEC3"
    },
    {
      "bufferView": 4,
      "byteOffset": 20,
      "componentType": 5126,
      "count": 1,
      "max": [
        0
      ],
      "min": [
        0
      ],
      "type": "SCALAR"
    },
    {
      "bufferView": 6,
      "byteOffset": 16,
      "componentType": 5126,
      "count": 1,
      "max": [
        0,
        0,
        0,
        1
      ],
      "min": [
        0,
        0,
        0,
        1
      ],
      "type": "VEC4"
    }
  ],
  "animations": [
    {
      "channels": [
        {
          "sampler": 0,
          "target": {
            "node": 5,
            "path": "translation"
          }
        },
        {
          "sampler": 1,
          "target": {
            "node": 5,
            "path": "scale"
          }
        },
        {
          "sampler": 2,
          "target": {
            "node": 5,
            "path": "rotation"
          }
        },
        {
          "sampler": 3,
          "target": {
            "node": 4,
            "path": "translation"
          }
        },
        {
          "sampler": 4,
          "target": {
            "node": 4,
            "path": "scale"
          }
        },
        {
          "sampler": 5,
          "target": {
            "node": 4,
            "path": "rotation"
          }
        }
      ],
      "name": "Take 001",
      "samplers": [
        {
          "input": 5,
          "interpolation": "LINEAR",
          "output": 6
        },
        {
          "input": 7,
          "interpolation": "LINEAR",
          "output": 8
        },
        {
          "input": 9,
          "interpolation": "LINEAR",
          "output": 10
        },
        {
          "input": 11,
          "interpolation": "LINEAR",
          "output": 12
        },
        {
          "input": 13,
          "interpolation": "LINEAR",
          "output": 14
        },
        {
          "input": 15,
          "interpolation": "LINEAR",
          "output": 16
        }
      ]
    }
  ],
  "asset": {
    "extras": {
      "author": "Yogensia (https://sketchfab.com/yogensia)",
      "license": "CC-BY-NC-SA-4.0 (http://creativecommons.org/licenses/by-nc-sa/4.0/)",
      "source": "https://sketchfab.com/3d-models/rickenbacker-4001-5d06c04f4b8b47c5b54452d3326c04f7",
      "title": "Rickenbacker 4001"
    },
    "generator": "Sketchfab-8.64.0",
    "version": "2.0"
  },
  "bufferViews": [
    {
      "buffer": 0,
      "byteLength": 165804,
      "byteOffset": 0,
      "name": "floatBufferViews",
      "target": 34963
    },
    {
      "buffer": 0,
      "byteLength": 81256,
      "byteOffset": 165804,
      "byteStride": 8,
      "name": "floatBufferViews",
      "target": 34962
    },
    {
      "buffer": 0,
      "byteLength": 243768,
      "byteOffset": 247060,
      "byteStride": 12,
      "name": "floatBufferViews",
      "target": 34962
    },
    {
      "buffer": 0,
      "byteLength": 162512,
      "byteOffset": 490828,
      "byteStride": 16,
      "name": "floatBufferViews",
      "target": 34962
    },
    {
      "buffer": 0,
      "byteLength": 24,
      "byteOffset": 653340,
      "name": "floatBufferViews"
    },
    {
      "buffer": 0,
      "byteLength": 48,
      "byteOffset": 653364,
      "byteStride": 12,
      "name": "floatBufferViews"
    },
    {
      "buffer": 0,
      "byteLength": 32,
      "byteOffset": 653412,
      "byteStride": 16,
      "name": "floatBufferViews"
    }
  ],
  "buffers": [
    {
      "byteLength": 653444,
      "uri": "scene.bin"
    }
  ],
  "extensionsRequired": [
    "KHR_materials_pbrSpecularGlossiness"
  ],
  "extensionsUsed": [
    "KHR_materials_pbrSpecularGlossiness"
  ],
  "images": [
    {
      "uri": "textures/10_-_Default_diffuse.png"
    },
    {
      "uri": "textures/10_-_Default_specularGlossiness.png"
    },
    {
      "uri": "textures/10_-_Default_normal.png"
    },
    {
      "uri": "textures/10_-_Default_occlusion.png"
    }
  ],
  "materials": [
    {
      "doubleSided": false,
      "extensions": {
        "KHR_materials_pbrSpecularGlossiness": {
          "diffuseFactor": [
            1,
            1,
            1,
            1
          ],
          "diffuseTexture": {
            "index": 0,
            "texCoord": 0
          },
          "glossinessFactor": 1,
          "specularFactor": [
            1,
            1,
            1
          ],
          "specularGlossinessTexture": {
            "index": 1,
            "texCoord": 0
          }
        }
      },
      "name": "10_-_Default",
      "normalTexture": {
        "index": 2,
        "scale": 1,
        "texCoord": 0
      },
      "occlusionTexture": {
        "index": 3,
        "strength": 1,
        "texCoord": 0
      }
    }
  ],
  "meshes": [
    {
      "primitives": [
        {
          "attributes": {
            "NORMAL": 1,
            "POSITION": 0,
            "TANGENT": 2,
            "TEXCOORD_0": 3
          },
          "indices": 4,
          "material": 0,
          "mode": 4
        }
      ]
    }
  ],
  "nodes": [
    {
      "children": [
        1
      ],
      "name": "RootNode (gltf orientation matrix)",
      "rotation": [
        -0.70710678118654746,
        -0,
        -0,
        0.70710678118654757
      ]
    },
    {
      "children": [
        2
      ],
      "matrix": [
        0.92273765802383423,
        0.32105091214179993,
        0.21326397359371185,
        0,
        -0.37982335686683655,
        0.66341406106948853,
        0.64468288421630859,
        0,
        0.06549372524023056,
        -0.67587584257125854,
        0.73409974575042725,
        0,
        -0.19441711902618408,
        -1.4201481342315674,
        0.066893003880977631,
        1
      ],
      "name": "RootNode (model correction matrix)"
    },
    {
      "children": [
        3
      ],
      "matrix": [
        1,
        0,
        0,
        0,
        0,
        0,
        1,
        0,
        0,
        -1,
        0,
        0,
        0,
        0,
        0,
        1
      ],
      "name": "96007ae82ffe4eac8e2fe90a5e88b025.fbx"
    },
    {
      "children": [
        4
      ],
      "name": ""
    },
    {
      "children": [
        5
      ],
      "name": "RootNode"
    },
    {
      "children": [
        6
      ],
      "name": "Main00odyTweaked",
      "rotation": [
        -0.7071068286895752,
        -0,
        0,
        0.7071068286895752
      ],
      "translation": [
        59.684806823730469,
        0,
        0.64501476287841797
      ]
    },
    {
      "children": [
        7
      ],
      "matrix": [
        1,
        0,
        -0,
        0,
        0,
        1,
        0,
        0,
        0,
        0,
        1,
        0,
        -119.53132629394531,
        0,
        0,
        1
      ],
      "name": ""
    },
    {
      "mesh": 0,
      "name": ""
    }
  ],
  "samplers": [
    {
      "magFilter": 9729,
      "minFilter": 9987,
      "wrapS": 10497,
      "wrapT": 10497
    }
  ],
  "scene": 0,
  "scenes": [
    {
      "name": "OSG_Scene",
      "nodes": [
        0
      ]
    }
  ],
  "textures": [
    {
      "sampler": 0,
      "source": 0
    },
    {
      "sampler": 0,
      "source": 1
    },
    {
      "sampler": 0,
      "source": 2
    },
    {
      "sampler": 0,
      "source": 3
    }
  ]
}

