{
  "accessors": [
    {
      "bufferView": 2,
      "componentType": 5126,
      "count": 677,
      "max": [
        0.28726699948310852,
        0.50580698251724243,
        0.92234897613525391
      ],
      "min": [
        -0.19748499989509583,
        -0.38590401411056519,
        -1
      ],
      "type": "VEC3"
    },
    {
      "bufferView": 2,
      "byteOffset": 8124,
      "componentType": 5126,
      "count": 677,
      "max": [
        1,
        1,
        1
      ],
      "min": [
        -1,
        -1,
        -0.99773001670837402
      ],
      "type": "VEC3"
    },
    {
      "bufferView": 3,
      "componentType": 5126,
      "count": 677,
      "max": [
        0.9918665885925293,
        1,
        1,
        1
      ],
      "min": [
        -0.99713730812072754,
        -0.9985736608505249,
        -0.98643666505813599,
        1
      ],
      "type": "VEC4"
    },
    {
      "bufferView": 2,
      "byteOffset": 16248,
      "componentType": 5126,
      "count": 677,
      "max": [
        1,
        1,
        0.9686274528503418
      ],
      "min": [
        0,
        0,
        0
      ],
      "type": "VEC3"
    },
    {
      "bufferView": 1,
      "componentType": 5126,
      "count": 677,
      "max": [
        0.94570201635360718,
        0.89723098278045654
      ],
      "min": [
        0.0035432199947535992,
        0.46810001134872437
      ],
      "type": "VEC2"
    },
    {
      "bufferView": 0,
      "componentType": 5125,
      "count": 3366,
      "max": [
        676
      ],
      "min": [
        0
      ],
      "type": "SCALAR"
    },
    {
      "bufferView": 2,
      "byteOffset": 24372,
      "componentType": 5126,
      "count": 1352,
      "max": [
        0.33149299025535583,
        0.66319501399993896,
        1
      ],
      "min": [
        -0.33149299025535583,
        -0.66319501399993896,
        -0.88186001777648926
      ],
      "type": "VEC3"
    },
    {
      "bufferView": 2,
      "byteOffset": 40596,
      "componentType": 5126,
      "count": 1352,
      "max": [
        1,
        1,
        1
      ],
      "min": [
        -1,
        -1,
        -1
      ],
      "type": "VEC3"
    },
    {
      "bufferView": 3,
      "byteOffset": 10832,
      "componentType": 5126,
      "count": 1352,
      "max": [
        1,
        0.99999988079071045,
        0.99999761581420898,
        1
      ],
      "min": [
        -1,
        -1,
        -1,
        -1
      ],
      "type": "VEC4"
    },
    {
      "bufferView": 2,
      "byteOffset": 56820,
      "componentType": 5126,
      "count": 1352,
      "max": [
        1,
        1,
        1
      ],
      "min": [
        0,
        0.062745101749897003,
        0.078431375324726105
      ],
      "type": "VEC3"
    },
    {
      "bufferView": 1,
      "byteOffset": 5416,
      "componentType": 5126,
      "count": 1352,
      "max": [
        0.99645698070526123,
        0.97162801027297974
      ],
      "min": [
        0.0035432199947535992,
        0.0035432199947535992
      ],
      "type": "VEC2"
    },
    {
      "bufferView": 0,
      "byteOffset": 13464,
      "componentType": 5125,
      "count": 6132,
      "max": [
        1351
      ],
      "min": [
        0
      ],
      "type": "SCALAR"
    }
  ],
  "asset": {
    "extras": {
      "author": "Smoggybeard (https://sketchfab.com/Smoggybeard)",
      "license": "CC-BY-4.0 (http://creativecommons.org/licenses/by/4.0/)",
      "source": "https://sketchfab.com/3d-models/cctv-camera-e69d5eb37ffb4f188e4d3c84a5d79cdc",
      "title": "CCTV Camera"
    },
    "generator": "Sketchfab-8.35.0",
    "version": "2.0"
  },
  "bufferViews": [
    {
      "buffer": 0,
      "byteLength": 37992,
      "byteOffset": 0,
      "name": "floatBufferViews",
      "target": 34963
    },
    {
      "buffer": 0,
      "byteLength": 16232,
      "byteOffset": 37992,
      "byteStride": 8,
      "name": "floatBufferViews",
      "target": 34962
    },
    {
      "buffer": 0,
      "byteLength": 73044,
      "byteOffset": 54224,
      "byteStride": 12,
      "name": "floatBufferViews",
      "target": 34962
    },
    {
      "buffer": 0,
      "byteLength": 32464,
      "byteOffset": 127268,
      "byteStride": 16,
      "name": "floatBufferViews",
      "target": 34962
    }
  ],
  "buffers": [
    {
      "byteLength": 159732,
      "uri": "scene.bin"
    }
  ],
  "images": [
    {
      "uri": "textures/Camera_Plastic_baseColor.jpeg"
    },
    {
      "uri": "textures/Camera_Plastic_metallicRoughness.png"
    },
    {
      "uri": "textures/Camera_Plastic_normal.png"
    },
    {
      "uri": "textures/Black_Glass_baseColor.png"
    },
    {
      "uri": "textures/Black_Glass_metallicRoughness.png"
    },
    {
      "uri": "textures/Black_Glass_emissive.jpeg"
    },
    {
      "uri": "textures/Black_Glass_normal.png"
    }
  ],
  "materials": [
    {
      "doubleSided": true,
      "name": "Camera_Plastic",
      "normalTexture": {
        "index": 2,
        "scale": 1,
        "texCoord": 0
      },
      "occlusionTexture": {
        "index": 1,
        "strength": 1,
        "texCoord": 0
      },
      "pbrMetallicRoughness": {
        "baseColorFactor": [
          1,
          1,
          1,
          1
        ],
        "baseColorTexture": {
          "index": 0,
          "texCoord": 0
        },
        "metallicFactor": 1,
        "metallicRoughnessTexture": {
          "index": 1,
          "texCoord": 0
        },
        "roughnessFactor": 1
      }
    },
    {
      "alphaMode": "BLEND",
      "doubleSided": true,
      "emissiveFactor": [
        1,
        1,
        1
      ],
      "emissiveTexture": {
        "index": 5,
        "texCoord": 0
      },
      "name": "Black_Glass",
      "normalTexture": {
        "index": 6,
        "scale": 1,
        "texCoord": 0
      },
      "occlusionTexture": {
        "index": 4,
        "strength": 1,
        "texCoord": 0
      },
      "pbrMetallicRoughness": {
        "baseColorFactor": [
          1,
          1,
          1,
          1
        ],
        "baseColorTexture": {
          "index": 3,
          "texCoord": 0
        },
        "metallicFactor": 1,
        "metallicRoughnessTexture": {
          "index": 4,
          "texCoord": 0
        },
        "roughnessFactor": 1
      }
    }
  ],
  "meshes": [
    {
      "name": "defaultMaterial",
      "primitives": [
        {
          "attributes": {
            "COLOR_0": 3,
            "NORMAL": 1,
            "POSITION": 0,
            "TANGENT": 2,
            "TEXCOORD_0": 4
          },
          "indices": 5,
          "material": 1,
          "mode": 4
        }
      ]
    },
    {
      "name": "defaultMaterial",
      "primitives": [
        {
          "attributes": {
            "COLOR_0": 9,
            "NORMAL": 7,
            "POSITION": 6,
            "TANGENT": 8,
            "TEXCOORD_0": 10
          },
          "indices": 11,
          "material": 0,
          "mode": 4
        }
      ]
    }
  ],
  "nodes": [
    {
      "children": [
        1
      ],
      "name": "RootNode (gltf orientation matrix)",
      "rotation": [
        -0.70710678118654746,
        -0,
        -0,
        0.70710678118654757
      ]
    },
    {
      "children": [
        2
      ],
      "name": "RootNode (model correction matrix)"
    },
    {
      "children": [
        3,
        5
      ],
      "matrix": [
        1,
        0,
        0,
        0,
        0,
        -4.3711390063094768e-08,
        0.999999999999999,
        0,
        0,
        -0.999999999999999,
        -4.3711390063094768e-08,
        0,
        0,
        0,
        0,
        1
      ],
      "name": "Collada visual scene group"
    },
    {
      "children": [
        4
      ],
      "name": "CCTV_Camera_low"
    },
    {
      "mesh": 0,
      "name": "defaultMaterial"
    },
    {
      "children": [
        6
      ],
      "name": "CCTV_Camera_low"
    },
    {
      "mesh": 1,
      "name": "defaultMaterial"
    }
  ],
  "samplers": [
    {
      "magFilter": 9729,
      "minFilter": 9987,
      "wrapS": 10497,
      "wrapT": 10497
    }
  ],
  "scene": 0,
  "scenes": [
    {
      "name": "OSG_Scene",
      "nodes": [
        0
      ]
    }
  ],
  "textures": [
    {
      "sampler": 0,
      "source": 0
    },
    {
      "sampler": 0,
      "source": 1
    },
    {
      "sampler": 0,
      "source": 2
    },
    {
      "sampler": 0,
      "source": 3
    },
    {
      "sampler": 0,
      "source": 4
    },
    {
      "sampler": 0,
      "source": 5
    },
    {
      "sampler": 0,
      "source": 6
    }
  ]
}

